# xmcd CD database file
#
# Track frame offsets:
#	150
#	32657
#	56205
#	75615
#	96267
#	101110
#	122190
#	147052
#	168507
#	193255
#	215205
#	236045
#	262232
#	286062
#	308817
#
# Disc length: 4398 seconds
#
# Revision: 0
# Processed by: cddbd v1.5.1PL2 Copyright (c) Steve Scherf et al.
# Submitted via: CDex 1.60beta1
#
DISCID=e8112c0f
DTITLE=中森明菜 - UNBALANCE+BALANCE+6
DYEAR=2002
DGENRE=JPop
TTITLE0=永遠の扉
TTITLE1=愛撫
TTITLE2=黒薔薇
TTITLE3=YOU ARE EVERYTHING
TTITLE4=光のない万華鏡
TTITLE5=眠るより泣きたい夜に
TTITLE6=NORMA JEAN
TTITLE7=NOT CRAZY TO ME (LP EDIT)
TTITLE8=陽炎
TTITLE9=Everlasting Love
TTITLE10=NOT CRAZY TO ME
TTITLE11=夜のどこかで 〜night shift〜
TTITLE12=Rose Bud
TTITLE13=月華
TTITLE14=BLUE LACE
EXTD=YEAR: 2002
EXTT0=
EXTT1=
EXTT2=
EXTT3=
EXTT4=
EXTT5=
EXTT6=
EXTT7=
EXTT8=
EXTT9=
EXTT10=
EXTT11=
EXTT12=
EXTT13=
EXTT14=
PLAYORDER=
